<!-- <svg id="visual" viewBox="0 0 900 600" width="900" height="600" xmlns="http://www.w3.org/2000/svg" xmlns:xlink="http://www.w3.org/1999/xlink" version="1.1"><rect x="0" y="0" width="900" height="600" fill="#001220"></rect><defs><linearGradient id="grad1_0" x1="33.3%" y1="0%" x2="100%" y2="100%"><stop offset="20%" stop-color="#001220" stop-opacity="1"></stop><stop offset="80%" stop-color="#001220" stop-opacity="1"></stop></linearGradient></defs><defs><linearGradient id="grad2_0" x1="0%" y1="0%" x2="66.7%" y2="100%"><stop offset="20%" stop-color="#001220" stop-opacity="1"></stop><stop offset="80%" stop-color="#001220" stop-opacity="1"></stop></linearGradient></defs><g transform="translate(900, 0)"><path d="M0 486.7C-50.3 442.6 -100.7 398.4 -155.4 375.1C-210.1 351.8 -269.1 349.4 -322.4 322.4C-375.7 295.5 -423.3 244.1 -449.7 186.3C-476.1 128.4 -481.4 64.2 -486.7 0L0 0Z" fill="#0066FF"></path></g><g transform="translate(0, 600)"><path d="M0 -486.7C69 -486.1 138.1 -485.4 186.3 -449.7C234.5 -414 261.8 -343.2 290.6 -290.6C319.4 -238.1 349.6 -203.8 382.5 -158.4C415.4 -113 451.1 -56.5 486.7 0L0 0Z" fill="#0066FF"></path></g></svg> -->
<!-- <svg id="visual" viewBox="0 0 900 600" width="900" height="600" xmlns="http://www.w3.org/2000/svg" xmlns:xlink="http://www.w3.org/1999/xlink" version="1.1"><rect x="0" y="0" width="900" height="600" fill="#FCAF3C"></rect><defs><linearGradient id="grad1_0" x1="33.3%" y1="0%" x2="100%" y2="100%"><stop offset="20%" stop-color="#fcaf3c" stop-opacity="1"></stop><stop offset="80%" stop-color="#fcaf3c" stop-opacity="1"></stop></linearGradient></defs><defs><linearGradient id="grad2_0" x1="0%" y1="0%" x2="66.7%" y2="100%"><stop offset="20%" stop-color="#fcaf3c" stop-opacity="1"></stop><stop offset="80%" stop-color="#fcaf3c" stop-opacity="1"></stop></linearGradient></defs><g transform="translate(900, 0)"><path d="M0 486.7C-66.8 482.8 -133.6 478.9 -186.3 449.7C-239 420.4 -277.6 365.9 -318.2 318.2C-358.8 270.5 -401.2 229.8 -429.6 177.9C-458 126.1 -472.4 63 -486.7 0L0 0Z" fill="#6600FF"></path></g><g transform="translate(0, 600)"><path d="M0 -486.7C45.9 -433.3 91.9 -379.8 148.9 -359.4C205.8 -339 273.9 -351.8 328.8 -328.8C383.7 -305.8 425.6 -247 449.7 -186.3C473.8 -125.5 480.3 -62.8 486.7 0L0 0Z" fill="#6600FF"></path></g></svg> -->
<!-- <svg id="visual" viewBox="0 0 900 600" width="900" height="600" xmlns="http://www.w3.org/2000/svg" xmlns:xlink="http://www.w3.org/1999/xlink" version="1.1"><rect x="0" y="0" width="900" height="600" fill="#ffffff"></rect><defs><linearGradient id="grad1_0" x1="33.3%" y1="100%" x2="100%" y2="0%"><stop offset="20%" stop-color="#ffffff" stop-opacity="1"></stop><stop offset="80%" stop-color="#ffffff" stop-opacity="1"></stop></linearGradient></defs><defs><linearGradient id="grad2_0" x1="0%" y1="100%" x2="66.7%" y2="0%"><stop offset="20%" stop-color="#ffffff" stop-opacity="1"></stop><stop offset="80%" stop-color="#ffffff" stop-opacity="1"></stop></linearGradient></defs><g transform="translate(900, 600)"><path d="M-486.7 0C-441.1 -52 -395.4 -104 -364.9 -151.2C-334.5 -198.3 -319.2 -240.5 -294.9 -294.9C-270.5 -349.2 -236.9 -415.7 -186.3 -449.7C-135.6 -483.7 -67.8 -485.2 0 -486.7L0 0Z" fill="#6600FF"></path></g><g transform="translate(0, 0)"><path d="M486.7 0C486 69.5 485.2 139 449.7 186.3C414.2 233.5 343.8 258.5 294.2 294.2C244.5 329.9 215.5 376.3 169.9 410.2C124.3 444.1 62.2 465.4 0 486.7L0 0Z" fill="#6600FF"></path></g></svg> -->

<svg id="visual" viewBox="0 0 900 600" width="900" height="600" xmlns="http://www.w3.org/2000/svg" xmlns:xlink="http://www.w3.org/1999/xlink" version="1.1">
  <rect x="0" y="0" width="900" height="600" fill="#ffffff"></rect>
  <defs>
    <linearGradient id="grad1_0" x1="33.3%" y1="100%" x2="100%" y2="0%">
      <stop offset="20%" stop-color="#ffffff" stop-opacity="1"></stop>
      <stop offset="80%" stop-color="#ffffff" stop-opacity="1"></stop>
    </linearGradient>
  </defs>
  <defs>
    <linearGradient id="grad2_0" x1="0%" y1="100%" x2="66.7%" y2="0%">
      <stop offset="20%" stop-color="#ffffff" stop-opacity="1"></stop>
      <stop offset="80%" stop-color="#ffffff" stop-opacity="1"></stop>
    </linearGradient>
  </defs>
  <g transform="translate(900, 600)">
    <!-- Adjusted path for the right corner as a circle -->
    <path d="M0 -486.7A486.7 486.7 0 0 1 486.7 0L0 0Z" fill="#  "></path>
  </g>
  <g transform="translate(0, 0)">
    <path d="M486.7 0C486 69.5 485.2 139 449.7 186.3C414.2 233.5 343.8 258.5 294.2 294.2C244.5 329.9 215.5 376.3 169.9 410.2C124.3 444.1 62.2 465.4 0 486.7L0 0Z" fill="#004AAD"></path>
  </g>
</svg>
